<?xml version="1.0" encoding="utf-8"?>
<!-- Generator: Adobe Illustrator 16.0.0, SVG Export Plug-In . SVG Version: 6.00 Build 0)  -->
<!DOCTYPE svg PUBLIC "-//W3C//DTD SVG 1.1//EN" "http://www.w3.org/Graphics/SVG/1.1/DTD/svg11.dtd">
<svg version="1.1" id="圖層_1" xmlns="http://www.w3.org/2000/svg" xmlns:xlink="http://www.w3.org/1999/xlink" x="0px" y="0px"
	 width="16px" height="16px" viewBox="0 0 16 16" enable-background="new 0 0 16 16" xml:space="preserve">
<g id="XMLID_209_">
	<g id="XMLID_224_">
		<g id="XMLID_227_">
			
				<linearGradient id="XMLID_2_" gradientUnits="userSpaceOnUse" x1="4119.7656" y1="-5948.5952" x2="4119.7656" y2="-6161.4326" gradientTransform="matrix(0.0742 0 0 -0.0742 -297.9133 -440.9891)">
				<stop  offset="0" style="stop-color:#FFFFFF"/>
				<stop  offset="0.1836" style="stop-color:#F8F8F9"/>
				<stop  offset="0.4567" style="stop-color:#E4E6E8"/>
				<stop  offset="0.784" style="stop-color:#C3C8CD"/>
				<stop  offset="1" style="stop-color:#A9B0B8"/>
			</linearGradient>
			<path id="XMLID_233_" fill="url(#XMLID_2_)" d="M7.773,0.468c-4.039,0-7.313,3.274-7.313,7.313c0,4.04,3.274,7.313,7.313,7.313
				s7.313-3.273,7.313-7.313C15.087,3.742,11.812,0.468,7.773,0.468z M7.773,14.441c-3.683,0-6.667-2.985-6.667-6.668
				s2.984-6.667,6.667-6.667s6.668,2.984,6.668,6.667S11.456,14.441,7.773,14.441z"/>
			
				<linearGradient id="XMLID_3_" gradientUnits="userSpaceOnUse" x1="4021" y1="-6048.0117" x2="4218.5234" y2="-6048.0117" gradientTransform="matrix(0.0742 0 0 -0.0742 -297.9133 -440.9891)">
				<stop  offset="0" style="stop-color:#FFFFFF"/>
				<stop  offset="0.0827" style="stop-color:#F8F8F9"/>
				<stop  offset="0.2057" style="stop-color:#E4E6E8"/>
				<stop  offset="0.3531" style="stop-color:#C3C8CD"/>
				<stop  offset="0.4504" style="stop-color:#A9B0B8"/>
				<stop  offset="0.9109" style="stop-color:#FCFDFD"/>
				<stop  offset="0.9309" style="stop-color:#F4F4F6"/>
				<stop  offset="0.965" style="stop-color:#DCDEE1"/>
				<stop  offset="1" style="stop-color:#BEC3C9"/>
			</linearGradient>
			<path id="XMLID_228_" fill="url(#XMLID_3_)" d="M7.773,15.102c-4.039,0-7.328-3.289-7.328-7.328s3.289-7.328,7.328-7.328
				s7.328,3.289,7.328,7.328S11.812,15.102,7.773,15.102z M7.773,0.482c-4.024,0-7.291,3.274-7.291,7.291s3.274,7.291,7.291,7.291
				s7.291-3.274,7.291-7.291S11.798,0.482,7.773,0.482z M7.773,14.455c-3.683,0-6.682-2.999-6.682-6.682s3-6.682,6.682-6.682
				s6.682,3,6.682,6.682S11.456,14.455,7.773,14.455z M7.773,1.128c-3.667,0-6.645,2.985-6.645,6.645s2.985,6.645,6.645,6.645
				s6.645-2.984,6.645-6.645S11.441,1.128,7.773,1.128z"/>
		</g>
		
			<linearGradient id="XMLID_4_" gradientUnits="userSpaceOnUse" x1="4119.7695" y1="-5948.5894" x2="4119.7695" y2="-6161.439" gradientTransform="matrix(0.0742 0 0 -0.0742 -297.9133 -440.9891)">
			<stop  offset="0" style="stop-color:#FFFFFF"/>
			<stop  offset="0.1836" style="stop-color:#F8F8F9"/>
			<stop  offset="0.4567" style="stop-color:#E4E6E8"/>
			<stop  offset="0.784" style="stop-color:#C3C8CD"/>
			<stop  offset="1" style="stop-color:#A9B0B8"/>
		</linearGradient>
		<circle id="XMLID_226_" fill="url(#XMLID_4_)" cx="7.773" cy="7.774" r="6.667"/>
		
			<linearGradient id="XMLID_5_" gradientUnits="userSpaceOnUse" x1="4119.7695" y1="-5957.3657" x2="4119.7695" y2="-6151.4302" gradientTransform="matrix(0.0742 0 0 -0.0742 -297.9133 -440.9891)">
			<stop  offset="0" style="stop-color:#A9B0B8"/>
			<stop  offset="0.216" style="stop-color:#C3C8CD"/>
			<stop  offset="0.5433" style="stop-color:#E4E6E8"/>
			<stop  offset="0.8164" style="stop-color:#F8F8F9"/>
			<stop  offset="1" style="stop-color:#FFFFFF"/>
		</linearGradient>
		<circle id="XMLID_225_" fill="url(#XMLID_5_)" cx="7.773" cy="7.774" r="6.667"/>
	</g>
	<g id="XMLID_211_">
		<g id="XMLID_213_">
			<g id="XMLID_218_">
				
					<linearGradient id="XMLID_6_" gradientUnits="userSpaceOnUse" x1="4042.7188" y1="-6048.0117" x2="4196.8047" y2="-6048.0117" gradientTransform="matrix(0.0742 0 0 -0.0742 -297.9133 -440.9891)">
					<stop  offset="0" style="stop-color:#5DAD34"/>
					<stop  offset="0.3655" style="stop-color:#58AB36"/>
					<stop  offset="0.6766" style="stop-color:#48A539"/>
					<stop  offset="0.9668" style="stop-color:#219B3F"/>
					<stop  offset="1" style="stop-color:#179A40"/>
				</linearGradient>
				<circle id="XMLID_223_" fill="url(#XMLID_6_)" cx="7.773" cy="7.773" r="5.717"/>
				
					<radialGradient id="XMLID_7_" cx="4118.4697" cy="-6047.2871" r="84.1144" gradientTransform="matrix(0.0742 0 0 -0.0742 -297.9133 -440.9891)" gradientUnits="userSpaceOnUse">
					<stop  offset="0" style="stop-color:#5DAD34"/>
					<stop  offset="0.2559" style="stop-color:#5BAB35"/>
					<stop  offset="0.4737" style="stop-color:#53A436"/>
					<stop  offset="0.6776" style="stop-color:#469838"/>
					<stop  offset="0.8718" style="stop-color:#2F893A"/>
					<stop  offset="1" style="stop-color:#197D3B"/>
				</radialGradient>
				<path id="XMLID_222_" fill="url(#XMLID_7_)" d="M12.986,7.603c0.096,3.015-2.369,5.472-5.384,5.384
					c-2.732-0.09-4.952-2.31-5.041-5.042C2.465,4.93,4.93,2.472,7.944,2.562C10.677,2.65,12.896,4.878,12.986,7.603z"/>
			</g>
			<g id="XMLID_214_">
				
					<linearGradient id="XMLID_8_" gradientUnits="userSpaceOnUse" x1="4049.1172" y1="-6047.8164" x2="4189.8047" y2="-6047.8164" gradientTransform="matrix(0.0742 0 0 -0.0742 -297.9133 -440.9891)">
					<stop  offset="0" style="stop-color:#5DAD34"/>
					<stop  offset="0.618" style="stop-color:#349F3D"/>
					<stop  offset="1" style="stop-color:#179A40"/>
				</linearGradient>
				<path id="XMLID_215_" fill="url(#XMLID_8_)" d="M7.751,12.979c-2.874,0-5.22-2.339-5.22-5.22s2.339-5.22,5.22-5.22
					c2.88,0,5.219,2.339,5.219,5.22S10.632,12.979,7.751,12.979z M7.751,2.584C4.9,2.584,2.576,4.9,2.576,7.759
					s2.324,5.175,5.175,5.175s5.174-2.324,5.174-5.175C12.934,4.9,10.603,2.584,7.751,2.584z"/>
			</g>
		</g>
	</g>
</g>
</svg>
