<?xml version="1.0" encoding="utf-8"?>
<!-- Generator: Adobe Illustrator 26.3.1, SVG Export Plug-In . SVG Version: 6.00 Build 0)  -->
<svg version="1.1" id="圖層_1" xmlns="http://www.w3.org/2000/svg" xmlns:xlink="http://www.w3.org/1999/xlink" x="0px" y="0px"
	 viewBox="0 0 15.7 23.8" style="enable-background:new 0 0 15.7 23.8;" xml:space="preserve">
<style type="text/css">
	.st0{fill:#696D70;}
	.st1{fill:#E6F3FF;}
	.st2{fill:#FFFFFF;}
	.st3{fill:none;stroke:#FFFFFF;stroke-width:0.75;stroke-linecap:round;stroke-linejoin:round;stroke-miterlimit:10;}
	.st4{clip-path:url(#SVGID_00000071545994810892281450000003116907206382951331_);fill:#CCDDEA;}
</style>
<path class="st0" d="M12.4,20H3.5c-0.4,0-0.8-0.3-0.8-0.8V4.2c0-0.4,0.3-0.8,0.8-0.8h8.9c0.4,0,0.8,0.3,0.8,0.8v15.1
	C13.2,19.7,12.8,20,12.4,20z"/>
<path class="st1" d="M11.6,18.9H4.3c-0.3,0-0.6-0.3-0.6-0.6v-12C3.7,6,4,5.7,4.3,5.7h7.3c0.3,0,0.6,0.3,0.6,0.6v12
	C12.2,18.6,11.9,18.9,11.6,18.9z"/>
<circle class="st2" cx="5.1" cy="4.6" r="0.4"/>
<line class="st3" x1="6.8" y1="4.6" x2="11" y2="4.6"/>
<g>
	<defs>
		<polygon id="SVGID_1_" points="10.7,5.3 4.5,19.8 12.7,19.8 12.7,5.8 		"/>
	</defs>
	<clipPath id="SVGID_00000053539442188893130390000013198266067465075884_">
		<use xlink:href="#SVGID_1_"  style="overflow:visible;"/>
	</clipPath>
	<path style="clip-path:url(#SVGID_00000053539442188893130390000013198266067465075884_);fill:#CCDDEA;" d="M11.6,18.9H4.3
		c-0.3,0-0.6-0.3-0.6-0.6v-12C3.7,6,4,5.8,4.3,5.8h7.3c0.3,0,0.6,0.3,0.6,0.6v12C12.2,18.7,12,18.9,11.6,18.9z"/>
</g>
</svg>
