<?xml version="1.0" encoding="utf-8"?>
<!-- Generator: Adobe Illustrator 16.0.0, SVG Export Plug-In . SVG Version: 6.00 Build 0)  -->
<!DOCTYPE svg PUBLIC "-//W3C//DTD SVG 1.1//EN" "http://www.w3.org/Graphics/SVG/1.1/DTD/svg11.dtd">
<svg version="1.1" id="圖層_1" xmlns="http://www.w3.org/2000/svg" xmlns:xlink="http://www.w3.org/1999/xlink" x="0px" y="0px"
	 width="16px" height="16px" viewBox="0 0 16 16" enable-background="new 0 0 16 16" xml:space="preserve">
<g id="XMLID_190_">
	<g id="XMLID_205_">
		<g id="XMLID_208_">
			
				<linearGradient id="XMLID_2_" gradientUnits="userSpaceOnUse" x1="4119.6641" y1="-5948.5952" x2="4119.6641" y2="-6161.4326" gradientTransform="matrix(0.0742 0 0 -0.0742 -297.9133 -440.9891)">
				<stop  offset="0" style="stop-color:#FFFFFF"/>
				<stop  offset="0.1836" style="stop-color:#F8F8F9"/>
				<stop  offset="0.4567" style="stop-color:#E4E6E8"/>
				<stop  offset="0.784" style="stop-color:#C3C8CD"/>
				<stop  offset="1" style="stop-color:#A9B0B8"/>
			</linearGradient>
			<path id="XMLID_238_" fill="url(#XMLID_2_)" d="M7.766,0.468c-4.039,0-7.313,3.274-7.313,7.313c0,4.04,3.274,7.313,7.313,7.313
				c4.039,0,7.313-3.273,7.313-7.313C15.079,3.742,11.805,0.468,7.766,0.468z M7.766,14.441c-3.683,0-6.667-2.985-6.667-6.668
				s2.985-6.667,6.667-6.667c3.683,0,6.667,2.984,6.667,6.667S11.449,14.441,7.766,14.441z"/>
			
				<linearGradient id="XMLID_3_" gradientUnits="userSpaceOnUse" x1="4020.8984" y1="-6048.0117" x2="4218.4219" y2="-6048.0117" gradientTransform="matrix(0.0742 0 0 -0.0742 -297.9133 -440.9891)">
				<stop  offset="0" style="stop-color:#FFFFFF"/>
				<stop  offset="0.0827" style="stop-color:#F8F8F9"/>
				<stop  offset="0.2057" style="stop-color:#E4E6E8"/>
				<stop  offset="0.3531" style="stop-color:#C3C8CD"/>
				<stop  offset="0.4504" style="stop-color:#A9B0B8"/>
				<stop  offset="0.9109" style="stop-color:#FCFDFD"/>
				<stop  offset="0.9309" style="stop-color:#F4F4F6"/>
				<stop  offset="0.965" style="stop-color:#DCDEE1"/>
				<stop  offset="1" style="stop-color:#BEC3C9"/>
			</linearGradient>
			<path id="XMLID_210_" fill="url(#XMLID_3_)" d="M7.766,15.102c-4.039,0-7.328-3.289-7.328-7.328s3.289-7.328,7.328-7.328
				c4.039,0,7.328,3.289,7.328,7.328S11.805,15.102,7.766,15.102z M7.766,0.482c-4.017,0-7.291,3.274-7.291,7.291
				s3.274,7.291,7.291,7.291c4.017,0,7.291-3.274,7.291-7.291S11.79,0.482,7.766,0.482z M7.766,14.455
				c-3.683,0-6.682-2.999-6.682-6.682s3-6.682,6.682-6.682c3.683,0,6.682,3,6.682,6.682S11.456,14.455,7.766,14.455z M7.766,1.128
				c-3.667,0-6.645,2.985-6.645,6.645s2.985,6.645,6.645,6.645c3.66,0,6.645-2.984,6.645-6.645S11.434,1.128,7.766,1.128z"/>
		</g>
		
			<linearGradient id="XMLID_4_" gradientUnits="userSpaceOnUse" x1="4119.6641" y1="-5948.5894" x2="4119.6641" y2="-6161.439" gradientTransform="matrix(0.0742 0 0 -0.0742 -297.9133 -440.9891)">
			<stop  offset="0" style="stop-color:#FFFFFF"/>
			<stop  offset="0.1836" style="stop-color:#F8F8F9"/>
			<stop  offset="0.4567" style="stop-color:#E4E6E8"/>
			<stop  offset="0.784" style="stop-color:#C3C8CD"/>
			<stop  offset="1" style="stop-color:#A9B0B8"/>
		</linearGradient>
		<circle id="XMLID_207_" fill="url(#XMLID_4_)" cx="7.766" cy="7.774" r="6.667"/>
		
			<linearGradient id="XMLID_5_" gradientUnits="userSpaceOnUse" x1="4119.6641" y1="-5957.3657" x2="4119.6641" y2="-6151.4302" gradientTransform="matrix(0.0742 0 0 -0.0742 -297.9133 -440.9891)">
			<stop  offset="0" style="stop-color:#A9B0B8"/>
			<stop  offset="0.216" style="stop-color:#C3C8CD"/>
			<stop  offset="0.5433" style="stop-color:#E4E6E8"/>
			<stop  offset="0.8164" style="stop-color:#F8F8F9"/>
			<stop  offset="1" style="stop-color:#FFFFFF"/>
		</linearGradient>
		<circle id="XMLID_206_" fill="url(#XMLID_5_)" cx="7.766" cy="7.774" r="6.667"/>
	</g>
	<g id="XMLID_192_">
		<g id="XMLID_194_">
			<g id="XMLID_199_">
				
					<linearGradient id="XMLID_6_" gradientUnits="userSpaceOnUse" x1="4119.6602" y1="-5975.4727" x2="4119.6602" y2="-6153.6113" gradientTransform="matrix(0.0742 0 0 -0.0742 -297.9133 -440.9891)">
					<stop  offset="0" style="stop-color:#E94418"/>
					<stop  offset="0.2064" style="stop-color:#E74218"/>
					<stop  offset="0.3822" style="stop-color:#DD3E19"/>
					<stop  offset="0.5467" style="stop-color:#CD371B"/>
					<stop  offset="0.7044" style="stop-color:#B62D1C"/>
					<stop  offset="0.8558" style="stop-color:#9A221D"/>
					<stop  offset="1" style="stop-color:#79171C"/>
				</linearGradient>
				<circle id="XMLID_204_" fill="url(#XMLID_6_)" cx="7.766" cy="7.773" r="5.717"/>
				
					<radialGradient id="XMLID_7_" cx="4607.3604" cy="-6689.1025" r="94.4327" gradientTransform="matrix(0.0661 0 0 -0.0661 -296.8748 -434.4284)" gradientUnits="userSpaceOnUse">
					<stop  offset="0" style="stop-color:#E94418"/>
					<stop  offset="0.3148" style="stop-color:#E74318"/>
					<stop  offset="0.4835" style="stop-color:#E03F19"/>
					<stop  offset="0.6176" style="stop-color:#D43A1A"/>
					<stop  offset="0.7334" style="stop-color:#C2321C"/>
					<stop  offset="0.8375" style="stop-color:#AC291D"/>
					<stop  offset="0.9318" style="stop-color:#911E1D"/>
					<stop  offset="1" style="stop-color:#79171C"/>
				</radialGradient>
				<path id="XMLID_203_" fill="url(#XMLID_7_)" d="M12.979,7.603c0.096,3.015-2.369,5.472-5.383,5.384
					c-2.732-0.09-4.952-2.31-5.041-5.042C2.458,4.93,4.922,2.472,7.937,2.562C10.669,2.65,12.889,4.878,12.979,7.603z"/>
			</g>
			<g id="XMLID_195_">
				
					<linearGradient id="XMLID_8_" gradientUnits="userSpaceOnUse" x1="4049.0234" y1="-6047.8164" x2="4189.7031" y2="-6047.8164" gradientTransform="matrix(0.0742 0 0 -0.0742 -297.9133 -440.9891)">
					<stop  offset="0" style="stop-color:#E94418"/>
					<stop  offset="0.2064" style="stop-color:#E74218"/>
					<stop  offset="0.3822" style="stop-color:#DD3E19"/>
					<stop  offset="0.5467" style="stop-color:#CD371B"/>
					<stop  offset="0.7044" style="stop-color:#B62D1C"/>
					<stop  offset="0.8558" style="stop-color:#9A221D"/>
					<stop  offset="1" style="stop-color:#79171C"/>
				</linearGradient>
				<path id="XMLID_196_" fill="url(#XMLID_8_)" d="M7.744,12.979c-2.873,0-5.219-2.339-5.219-5.22s2.339-5.22,5.219-5.22
					c2.881,0,5.219,2.339,5.219,5.22S10.625,12.979,7.744,12.979z M7.744,2.584c-2.858,0-5.175,2.324-5.175,5.175
					c0,2.851,2.324,5.175,5.175,5.175s5.175-2.324,5.175-5.175C12.919,4.908,10.603,2.584,7.744,2.584z"/>
			</g>
		</g>
	</g>
</g>
</svg>
