<?xml version="1.0" encoding="utf-8"?>
<!-- Generator: Adobe Illustrator 26.3.1, SVG Export Plug-In . SVG Version: 6.00 Build 0)  -->
<svg version="1.1" id="圖層_1" xmlns="http://www.w3.org/2000/svg" xmlns:xlink="http://www.w3.org/1999/xlink" x="0px" y="0px"
	 viewBox="0 0 16 16" style="enable-background:new 0 0 16 16;" xml:space="preserve">
<style type="text/css">
	.st0{fill:#FFC2D2;}
	.st1{fill:#DB2E53;}
</style>
<circle class="st0" cx="8.1" cy="7.6" r="7"/>
<g>
	<path class="st1" d="M8.7,8.4c0,0-0.1-0.1-0.2-0.1H8.4h0H8.2c-0.1,0-0.2,0-0.2,0.1l-1,7.6c-0.1,0.1,0,0.2,0.2,0.2h1.1h0h1.1
		c0.1,0,0.2-0.1,0.2-0.2L8.7,8.4z"/>
	<circle class="st1" cx="8.4" cy="7.5" r="1"/>
</g>
<g>
	<g>
		<g>
			<g>
				<path class="st1" d="M6.5,8.5c0,0.1,0,0.1-0.1,0.2c-0.1,0.1-0.3,0.1-0.4,0c-0.7-0.6-0.7-1.5,0-2c0.1-0.1,0.3-0.1,0.4,0
					c0.1,0.1,0.1,0.2,0,0.3C6,7.3,6,7.9,6.4,8.3C6.5,8.3,6.5,8.4,6.5,8.5z"/>
			</g>
			<g>
				<path class="st1" d="M4.6,10.8c0,0.1,0,0.1-0.1,0.2c-0.1,0.1-0.3,0.1-0.4,0c-1.1-0.9-1.7-2.1-1.7-3.4c0-1.3,0.6-2.5,1.7-3.4
					c0.1-0.1,0.3-0.1,0.4,0c0.1,0.1,0.1,0.2,0,0.3C3.5,5.4,3,6.5,3,7.6c0,0,0,0,0,0c0,1.2,0.5,2.2,1.5,3C4.6,10.7,4.6,10.8,4.6,10.8
					z"/>
			</g>
			<g>
				<path class="st1" d="M5.6,9.6c0,0.1,0,0.1-0.1,0.2c-0.1,0.1-0.3,0.1-0.4,0c-1.4-1.2-1.4-3.1,0-4.3c0.1-0.1,0.3-0.1,0.4,0
					c0.1,0.1,0.1,0.2,0,0.3c-1.2,1-1.2,2.7,0,3.7C5.5,9.5,5.6,9.6,5.6,9.6z"/>
			</g>
		</g>
	</g>
	<g>
		<g>
			<g>
				<path class="st1" d="M9.8,6.8c0-0.1,0-0.1,0.1-0.2c0.1-0.1,0.3-0.1,0.4,0c0.7,0.6,0.7,1.5,0,2c-0.1,0.1-0.3,0.1-0.4,0
					c-0.1-0.1-0.1-0.2,0-0.3c0.5-0.4,0.5-1,0-1.4C9.9,6.9,9.8,6.8,9.8,6.8z"/>
			</g>
			<g>
				<path class="st1" d="M11.8,4.4c0-0.1,0-0.1,0.1-0.2c0.1-0.1,0.3-0.1,0.4,0c1.1,0.9,1.7,2.1,1.7,3.4c0,1.3-0.6,2.5-1.7,3.4
					c-0.1,0.1-0.3,0.1-0.4,0c-0.1-0.1-0.1-0.2,0-0.3c1-0.8,1.5-1.9,1.5-3c0,0,0,0,0,0c0-1.2-0.5-2.2-1.5-3
					C11.8,4.5,11.8,4.5,11.8,4.4z"/>
			</g>
			<g>
				<path class="st1" d="M10.8,5.6c0-0.1,0-0.1,0.1-0.2c0.1-0.1,0.3-0.1,0.4,0c1.4,1.2,1.4,3.1,0,4.3c-0.1,0.1-0.3,0.1-0.4,0
					c-0.1-0.1-0.1-0.2,0-0.3c1.2-1,1.2-2.7,0-3.7C10.8,5.7,10.8,5.7,10.8,5.6z"/>
			</g>
		</g>
	</g>
</g>
</svg>
