<?xml version="1.0" encoding="utf-8"?>
<!-- Generator: Adobe Illustrator 16.0.0, SVG Export Plug-In . SVG Version: 6.00 Build 0)  -->
<!DOCTYPE svg PUBLIC "-//W3C//DTD SVG 1.1//EN" "http://www.w3.org/Graphics/SVG/1.1/DTD/svg11.dtd">
<svg version="1.1" id="圖層_1" xmlns="http://www.w3.org/2000/svg" xmlns:xlink="http://www.w3.org/1999/xlink" x="0px" y="0px"
	 width="16px" height="16px" viewBox="0 0 16 16" enable-background="new 0 0 16 16" xml:space="preserve">
<g id="XMLID_130_">
	<g id="XMLID_139_">
		<g id="XMLID_145_">
			
				<linearGradient id="XMLID_2_" gradientUnits="userSpaceOnUse" x1="4120.5664" y1="-5950.5947" x2="4120.5664" y2="-6163.4331" gradientTransform="matrix(0.0742 0 0 -0.0742 -297.9133 -440.9891)">
				<stop  offset="0" style="stop-color:#FFFFFF"/>
				<stop  offset="0.1836" style="stop-color:#F8F8F9"/>
				<stop  offset="0.4567" style="stop-color:#E4E6E8"/>
				<stop  offset="0.784" style="stop-color:#C3C8CD"/>
				<stop  offset="1" style="stop-color:#A9B0B8"/>
			</linearGradient>
			<path id="XMLID_177_" fill="url(#XMLID_2_)" d="M7.833,0.616c-4.039,0-7.313,3.267-7.313,7.306s3.274,7.313,7.313,7.313
				s7.313-3.274,7.313-7.313S11.872,0.616,7.833,0.616z M7.833,14.59c-3.683,0-6.667-2.985-6.667-6.668S4.15,1.255,7.833,1.255
				S14.5,4.239,14.5,7.922S11.516,14.59,7.833,14.59z"/>
			
				<linearGradient id="XMLID_3_" gradientUnits="userSpaceOnUse" x1="4021.8047" y1="-6050.0117" x2="4219.3281" y2="-6050.0117" gradientTransform="matrix(0.0742 0 0 -0.0742 -297.9133 -440.9891)">
				<stop  offset="0" style="stop-color:#FFFFFF"/>
				<stop  offset="0.0827" style="stop-color:#F8F8F9"/>
				<stop  offset="0.2057" style="stop-color:#E4E6E8"/>
				<stop  offset="0.3531" style="stop-color:#C3C8CD"/>
				<stop  offset="0.4504" style="stop-color:#A9B0B8"/>
				<stop  offset="0.9109" style="stop-color:#FCFDFD"/>
				<stop  offset="0.9309" style="stop-color:#F4F4F6"/>
				<stop  offset="0.965" style="stop-color:#DCDEE1"/>
				<stop  offset="1" style="stop-color:#BEC3C9"/>
			</linearGradient>
			<path id="XMLID_153_" fill="url(#XMLID_3_)" d="M7.833,15.25c-4.039,0-7.328-3.289-7.328-7.328s3.289-7.328,7.328-7.328
				s7.328,3.289,7.328,7.328S11.872,15.25,7.833,15.25z M7.833,0.631c-4.017,0-7.291,3.274-7.291,7.291
				c0,4.018,3.274,7.291,7.291,7.291s7.291-3.273,7.291-7.291C15.124,3.905,11.85,0.631,7.833,0.631z M7.833,14.604
				c-3.683,0-6.682-2.999-6.682-6.682s3-6.682,6.682-6.682s6.683,3,6.683,6.682S11.516,14.604,7.833,14.604z M7.833,1.277
				c-3.668,0-6.645,2.978-6.645,6.645c0,3.668,2.985,6.645,6.645,6.645s6.646-2.984,6.646-6.645S11.493,1.277,7.833,1.277z"/>
		</g>
		
			<linearGradient id="XMLID_4_" gradientUnits="userSpaceOnUse" x1="4120.5625" y1="-5950.5977" x2="4120.5625" y2="-6163.4385" gradientTransform="matrix(0.0742 0 0 -0.0742 -297.9133 -440.9891)">
			<stop  offset="0" style="stop-color:#FFFFFF"/>
			<stop  offset="0.1836" style="stop-color:#F8F8F9"/>
			<stop  offset="0.4567" style="stop-color:#E4E6E8"/>
			<stop  offset="0.784" style="stop-color:#C3C8CD"/>
			<stop  offset="1" style="stop-color:#A9B0B8"/>
		</linearGradient>
		<circle id="XMLID_141_" fill="url(#XMLID_4_)" cx="7.833" cy="7.922" r="6.667"/>
		
			<linearGradient id="XMLID_5_" gradientUnits="userSpaceOnUse" x1="4120.5625" y1="-5959.3735" x2="4120.5625" y2="-6153.4292" gradientTransform="matrix(0.0742 0 0 -0.0742 -297.9133 -440.9891)">
			<stop  offset="0" style="stop-color:#A9B0B8"/>
			<stop  offset="0.216" style="stop-color:#C3C8CD"/>
			<stop  offset="0.5433" style="stop-color:#E4E6E8"/>
			<stop  offset="0.8164" style="stop-color:#F8F8F9"/>
			<stop  offset="1" style="stop-color:#FFFFFF"/>
		</linearGradient>
		<circle id="XMLID_140_" fill="url(#XMLID_5_)" cx="7.833" cy="7.922" r="6.667"/>
	</g>
	
		<linearGradient id="XMLID_6_" gradientUnits="userSpaceOnUse" x1="4120.5645" y1="-5974.6748" x2="4120.5645" y2="-6126.5747" gradientTransform="matrix(0.0742 0 0 -0.0742 -297.9133 -440.9891)">
		<stop  offset="0" style="stop-color:#F1BD1D"/>
		<stop  offset="0.2619" style="stop-color:#F0BA1C"/>
		<stop  offset="0.4848" style="stop-color:#ECB119"/>
		<stop  offset="0.6935" style="stop-color:#E4A215"/>
		<stop  offset="0.8923" style="stop-color:#DA8E11"/>
		<stop  offset="1" style="stop-color:#D38011"/>
	</linearGradient>
	<path id="XMLID_138_" fill="url(#XMLID_6_)" d="M13.424,9.162c0.869-4.121-2.71-7.699-6.831-6.831
		C4.41,2.792,2.703,4.507,2.242,6.682c-0.869,4.113,2.703,7.692,6.823,6.824C11.248,13.053,12.963,11.345,13.424,9.162z"/>
	
		<radialGradient id="XMLID_7_" cx="4123.8096" cy="-6050.5957" r="92.4248" gradientTransform="matrix(0.0742 0 0 -0.0742 -297.9133 -440.9891)" gradientUnits="userSpaceOnUse">
		<stop  offset="0" style="stop-color:#F2CC23"/>
		<stop  offset="0.1619" style="stop-color:#ECBF1E"/>
		<stop  offset="1" style="stop-color:#DA9212"/>
	</radialGradient>
	<path id="XMLID_137_" fill="url(#XMLID_7_)" d="M12.896,6.652c0.816,3.482-1.855,6.578-5.234,6.482
		c-2.754-0.09-4.959-2.295-5.049-5.049C2.51,4.715,5.605,2.034,9.088,2.851C10.974,3.296,12.459,4.781,12.896,6.652z"/>
	<g id="XMLID_133_">
		
			<linearGradient id="XMLID_8_" gradientUnits="userSpaceOnUse" x1="4050.3203" y1="-6050.0195" x2="4190.8047" y2="-6050.0195" gradientTransform="matrix(0.0742 0 0 -0.0742 -297.9133 -440.9891)">
			<stop  offset="0" style="stop-color:#F1BD1D"/>
			<stop  offset="0.2619" style="stop-color:#F0BA1C"/>
			<stop  offset="0.4848" style="stop-color:#ECB119"/>
			<stop  offset="0.6935" style="stop-color:#E4A215"/>
			<stop  offset="0.8923" style="stop-color:#DA8E11"/>
			<stop  offset="1" style="stop-color:#D38011"/>
		</linearGradient>
		<path id="XMLID_134_" fill="url(#XMLID_8_)" d="M7.833,13.135c-2.881,0-5.212-2.34-5.212-5.213c0-2.88,2.338-5.212,5.212-5.212
			c2.881,0,5.212,2.339,5.212,5.212C13.045,10.803,10.706,13.135,7.833,13.135z M7.833,2.747c-2.851,0-5.175,2.324-5.175,5.175
			c0,2.852,2.324,5.176,5.175,5.176c2.851,0,5.175-2.324,5.175-5.176C13.008,5.071,10.684,2.747,7.833,2.747z"/>
	</g>
</g>
</svg>
